<svg id="10015.io" viewBox="0 0 480 480" xmlns="http://www.w3.org/2000/svg" xmlns:xlink="http://www.w3.org/1999/xlink" >
	<defs>
		<clipPath id="blob">
			<path fill="#474bff" d="M410,277Q393,314,381,358Q369,402,329,429Q289,456,239.5,457Q190,458,140.5,442.5Q91,427,68,380.5Q45,334,54.5,287Q64,240,44.5,188Q25,136,65.5,104Q106,72,148,47Q190,22,238.5,29Q287,36,336,47Q385,58,419,98Q453,138,440,189Q427,240,410,277Z" />
		</clipPath>
	</defs>
	<image x="0" y="0" width="100%" height="100%" clip-path="url(#blob)" xlink:href="https://images.unsplash.com/photo-1575116464504-9e7652fddcb3?ixlib=rb-4.0.3&amp;ixid=M3wxMjA3fDB8MHxwaG90by1wYWdlfHx8fGVufDB8fHx8fA%3D%3D&amp;auto=format&amp;fit=crop&amp;w=1180&amp;q=80" preserveAspectRatio="xMidYMid slice"></image>
</svg>