<svg id="10015.io" viewBox="0 0 480 480" xmlns="http://www.w3.org/2000/svg" xmlns:xlink="http://www.w3.org/1999/xlink" >
	<defs>
		<clipPath id="blob">
			<path fill="#474bff" d="M450.5,275Q422,310,416.5,353Q411,396,370.5,408Q330,420,294.5,435Q259,450,222,441Q185,432,154.5,413Q124,394,89,374.5Q54,355,44.5,316.5Q35,278,38.5,240.5Q42,203,42.5,160.5Q43,118,74.5,90.5Q106,63,140.5,37Q175,11,217,24Q259,37,295.5,46Q332,55,362.5,77.5Q393,100,415,132Q437,164,458,202Q479,240,450.5,275Z" />
		</clipPath>
	</defs>
	<image x="0" y="0" width="100%" height="100%" clip-path="url(#blob)" xlink:href="https://images.unsplash.com/photo-1575116463180-e55de938f1e3?ixlib=rb-4.0.3&amp;ixid=M3wxMjA3fDB8MHxwaG90by1wYWdlfHx8fGVufDB8fHx8fA%3D%3D&amp;auto=format&amp;fit=crop&amp;w=1160&amp;q=80" preserveAspectRatio="xMidYMid slice"></image>
</svg>