<svg viewBox="0 0 186 50" xmlns="http://www.w3.org/2000/svg" xmlns:xlink="http://www.w3.org/1999/xlink"><defs><path id="prefix__c" d="M155 40h10v55h-10z"/><path id="prefix__b" d="M0 0h20v19H0z"/><path id="prefix__a" d="M0 0h63.211v315.406H0z"/></defs><mask fill="#fff" id="prefix__d" maskContentUnits="objectBoundingBox"><use xlink:href="#prefix__a"/></mask><text style="line-height:1.25" x="155" y="110" font-size="40" font-family="sans-serif" transform="matrix(.26458 0 0 .26458 -20.771 2.036)"></text><text style="line-height:1.25" x="265" y="80" font-size="7" font-family="sans-serif" transform="matrix(.26458 0 0 .26458 -20.771 2.036)"></text><path d="M89.782 43.431l-3.696-3.69-32.05-.07-32.05-.07-3.31-1.286C8.362 34.309 2.825 30.93.73 27.368c-.882-1.5-.975-3.62-.225-5.127 1.752-3.52 7.455-7.189 17.376-11.177l3.84-1.544 32.181-.069 32.182-.069 3.697-3.691L93.478 2h34.036v7.388l26.68.002c25.868.002 26.704.017 27.452.509 1.5.985 2.824 3.555 3.809 7.392.35 1.363.44 2.927.43 7.402-.011 4.997-.082 5.921-.592 7.76-1.138 4.101-2.682 6.503-4.507 7.008-.629.174-10.184.27-27.121.27l-26.15.002v7.388H93.477z" fill="#f5f5f5"/><g transform="matrix(.26458 0 0 .26458 -20.771 2.036)"><rect height="39.421" ry="1.1" width="18.451" x="166.076" y="94.959" fill="#c8c9c7"/><path d="M170.556 119.511h-.493v-3.946h-1.044l.136-.555.137-.555.521-1.447.522-1.446-.092-.404-.091-.403-.447 1.542-.447 1.541h-.675v-1.145l.405-1.215.405-1.216.242-.308.242-.309h1.267l-.439-.32-.438-.32.083-.728.083-.728h1.726l.083.728.083.728-.438.32-.439.32h1.267l.279.336.278.335.492 1.43.492 1.43v.662h-.908l-.328-1.368-.328-1.368-.205-.126-.204-.126v.323l.39 1.345.392 1.346.347.665.347.666.002.185.001.185h-1.233v3.946h-.986v-3.946h-.494v3.946zm7.893 0h-.493l-.048-4.131-.047-4.131-.088 1.541-.088 1.542h-.716V110.237l.296-.296.296-.296h3.256l.296.296.296.296V114.332h-.717l-.087-1.542-.088-1.541-.048 4.131-.047 4.131h-.987v-4.933h-.493v4.933zm-2.96-.74h-.247v-10.605h.494v10.605zm3.76-9.418l-.804.077-.14-.367-.142-.368.081-.573.082-.573h1.726v1.726z"/></g><g fill="#00416B"><g mask="url(#prefix__d)" transform="matrix(.26458 0 0 .26458 -20.771 2.036)"><rect class="prefix__first_D3" height="19" ry="3" width="20" x="291.899" y="36"/></g><g mask="url(#prefix__d)" transform="matrix(.26458 0 0 .26458 -20.771 2.036)"><rect class="prefix__first_D4" height="19" ry="3" width="20" x="312.899" y="36"/></g><g mask="url(#prefix__d)" transform="matrix(.26458 0 0 .26458 -20.771 2.036)"><rect class="prefix__first_D1" height="19" ry="3" width="20" x="249.899" y="36"/></g><g mask="url(#prefix__d)" transform="matrix(.26458 0 0 .26458 -20.771 2.036)"><rect class="prefix__first_D2" height="19" ry="3" width="20" x="270.899" y="36"/></g><g mask="url(#prefix__d)" transform="matrix(.26458 0 0 .26458 -20.771 2.036)"><rect class="prefix__first_C3" height="19" ry="3" width="20" x="291.899" y="57"/></g><g mask="url(#prefix__d)" transform="matrix(.26458 0 0 .26458 -20.771 2.036)"><rect class="prefix__first_C4" height="19" ry="3" width="20" x="312.899" y="57"/></g><g mask="url(#prefix__d)" transform="matrix(.26458 0 0 .26458 -20.771 2.036)"><rect class="prefix__first_C1" height="19" ry="3" width="20" x="249.899" y="57"/></g><g mask="url(#prefix__d)" transform="matrix(.26458 0 0 .26458 -20.771 2.036)"><rect class="prefix__first_C2" height="19" ry="3" width="20" x="270.899" y="57"/></g></g><g fill="#00416B"><g mask="url(#prefix__d)" transform="matrix(.26458 0 0 .26458 -20.771 2.036)"><rect class="prefix__first_A3" height="19" ry="3" width="20" x="291.899" y="117"/></g><g mask="url(#prefix__d)" transform="matrix(.26458 0 0 .26458 -20.771 2.036)"><rect class="prefix__first_A4" height="19" ry="3" width="20" x="312.899" y="117"/></g><g mask="url(#prefix__d)" transform="matrix(.26458 0 0 .26458 -20.771 2.036)"><rect class="prefix__first_A1" height="19" ry="3" width="20" x="249.899" y="117"/></g><g mask="url(#prefix__d)" transform="matrix(.26458 0 0 .26458 -20.771 2.036)"><rect class="prefix__first_A2" height="19" ry="3" width="20" x="270.899" y="117"/></g></g><g fill="#43A9C7"><g mask="url(#prefix__d)" transform="matrix(.26458 0 0 .26458 -20.771 2.036)"><rect class="prefix__main_D9" height="19" ry="3" width="20" x="421.899" y="35"/></g><g mask="url(#prefix__d)" transform="matrix(.26458 0 0 .26458 -20.771 2.036)"><rect class="prefix__main_C9" height="19" ry="3" width="20" x="421.899" y="56"/></g><g mask="url(#prefix__d)" transform="matrix(.26458 0 0 .26458 -20.771 2.036)"><rect class="prefix__main_D12" height="19" ry="3" width="20" x="484.899" y="35"/></g><g mask="url(#prefix__d)" transform="matrix(.26458 0 0 .26458 -20.771 2.036)"><rect class="prefix__main_D13" height="19" ry="3" width="20" x="505.899" y="35"/></g><g mask="url(#prefix__d)" transform="matrix(.26458 0 0 .26458 -20.771 2.036)"><rect class="prefix__main_D10" height="19" ry="3" width="20" x="442.899" y="35"/></g><g mask="url(#prefix__d)" transform="matrix(.26458 0 0 .26458 -20.771 2.036)"><rect class="prefix__main_D11" height="19" ry="3" width="20" x="463.899" y="35"/></g><g mask="url(#prefix__d)" transform="matrix(.26458 0 0 .26458 -20.771 2.036)"><rect class="prefix__main_C12" height="19" ry="3" width="20" x="484.899" y="56"/></g><g mask="url(#prefix__d)" transform="matrix(.26458 0 0 .26458 -20.771 2.036)"><rect class="prefix__main_C13" height="19" ry="3" width="20" x="505.899" y="56"/></g><g mask="url(#prefix__d)" transform="matrix(.26458 0 0 .26458 -20.771 2.036)"><rect class="prefix__main_C10" height="19" ry="3" width="20" x="442.899" y="56"/></g><g mask="url(#prefix__d)" transform="matrix(.26458 0 0 .26458 -20.771 2.036)"><rect class="prefix__main_C11" height="19" ry="3" width="20" x="463.899" y="56"/></g><g mask="url(#prefix__d)" transform="matrix(.26458 0 0 .26458 -20.771 2.036)"><rect class="prefix__main_D16" height="19" ry="3" width="20" x="568.899" y="35"/></g><g mask="url(#prefix__d)" transform="matrix(.26458 0 0 .26458 -20.771 2.036)"><rect class="prefix__main_D17" height="19" ry="3" width="20" x="589.899" y="35"/></g><g mask="url(#prefix__d)" transform="matrix(.26458 0 0 .26458 -20.771 2.036)"><rect class="prefix__main_D14" height="19" ry="3" width="20" x="526.899" y="35"/></g><g mask="url(#prefix__d)" transform="matrix(.26458 0 0 .26458 -20.771 2.036)"><rect class="prefix__main_D15" height="19" ry="3" width="20" x="547.899" y="35"/></g><g mask="url(#prefix__d)" transform="matrix(.26458 0 0 .26458 -20.771 2.036)"><rect class="prefix__main_C16" height="19" ry="3" width="20" x="568.899" y="56"/></g><g mask="url(#prefix__d)" transform="matrix(.26458 0 0 .26458 -20.771 2.036)"><rect class="prefix__main_C17" height="19" ry="3" width="20" x="589.899" y="56"/></g><g mask="url(#prefix__d)" transform="matrix(.26458 0 0 .26458 -20.771 2.036)"><rect class="prefix__main_C14" height="19" ry="3" width="20" x="526.899" y="56"/></g><g mask="url(#prefix__d)" transform="matrix(.26458 0 0 .26458 -20.771 2.036)"><rect class="prefix__main_C15" height="19" ry="3" width="20" x="547.899" y="56"/></g><g mask="url(#prefix__d)" transform="matrix(.26458 0 0 .26458 -20.771 2.036)"><rect class="prefix__main_D20" height="19" ry="3" width="20" x="652.899" y="35"/></g><g mask="url(#prefix__d)" transform="matrix(.26458 0 0 .26458 -20.771 2.036)"><rect class="prefix__main_D21" height="19" ry="3" width="20" x="673.899" y="35"/></g><g mask="url(#prefix__d)" transform="matrix(.26458 0 0 .26458 -20.771 2.036)"><rect class="prefix__main_D18" height="19" ry="3" width="20" x="610.899" y="35"/></g><g mask="url(#prefix__d)" transform="matrix(.26458 0 0 .26458 -20.771 2.036)"><rect class="prefix__main_D19" height="19" ry="3" width="20" x="631.899" y="35"/></g><g mask="url(#prefix__d)" transform="matrix(.26458 0 0 .26458 -20.771 2.036)"><rect class="prefix__main_C20" height="19" ry="3" width="20" x="652.899" y="56"/></g><g mask="url(#prefix__d)" transform="matrix(.26458 0 0 .26458 -20.771 2.036)"><rect class="prefix__main_C21" height="19" ry="3" width="20" x="673.899" y="56"/></g><g mask="url(#prefix__d)" transform="matrix(.26458 0 0 .26458 -20.771 2.036)"><rect class="prefix__main_C18" height="19" ry="3" width="20" x="610.899" y="56"/></g><g mask="url(#prefix__d)" transform="matrix(.26458 0 0 .26458 -20.771 2.036)"><rect class="prefix__main_C19" height="19" ry="3" width="20" x="631.899" y="56"/></g></g><g fill="#43A9C7"><g mask="url(#prefix__d)" transform="matrix(.26458 0 0 .26458 -20.771 2.036)"><rect class="prefix__main_B9" height="19" ry="3" width="20" x="421.899" y="96"/></g><g mask="url(#prefix__d)" transform="matrix(.26458 0 0 .26458 -20.771 2.036)"><rect class="prefix__main_A9" height="19" ry="3" width="20" x="421.899" y="117"/></g><g mask="url(#prefix__d)" transform="matrix(.26458 0 0 .26458 -20.771 2.036)"><rect class="prefix__main_B12" height="19" ry="3" width="20" x="484.899" y="96"/></g><g mask="url(#prefix__d)" transform="matrix(.26458 0 0 .26458 -20.771 2.036)"><rect class="prefix__main_B13" height="19" ry="3" width="20" x="505.899" y="96"/></g><g mask="url(#prefix__d)" transform="matrix(.26458 0 0 .26458 -20.771 2.036)"><rect class="prefix__main_B10" height="19" ry="3" width="20" x="442.899" y="96"/></g><g mask="url(#prefix__d)" transform="matrix(.26458 0 0 .26458 -20.771 2.036)"><rect class="prefix__main_B11" height="19" ry="3" width="20" x="463.899" y="96"/></g><g mask="url(#prefix__d)" transform="matrix(.26458 0 0 .26458 -20.771 2.036)"><rect class="prefix__main_A12" height="19" ry="3" width="20" x="484.899" y="117"/></g><g mask="url(#prefix__d)" transform="matrix(.26458 0 0 .26458 -20.771 2.036)"><rect class="prefix__main_A13" height="19" ry="3" width="20" x="505.899" y="117"/></g><g mask="url(#prefix__d)" transform="matrix(.26458 0 0 .26458 -20.771 2.036)"><rect class="prefix__main_A10" height="19" ry="3" width="20" x="442.899" y="117"/></g><g mask="url(#prefix__d)" transform="matrix(.26458 0 0 .26458 -20.771 2.036)"><rect class="prefix__main_A11" height="19" ry="3" width="20" x="463.899" y="117"/></g><g mask="url(#prefix__d)" transform="matrix(.26458 0 0 .26458 -20.771 2.036)"><rect class="prefix__main_B16" height="19" ry="3" width="20" x="568.899" y="96"/></g><g mask="url(#prefix__d)" transform="matrix(.26458 0 0 .26458 -20.771 2.036)"><rect class="prefix__main_B17" height="19" ry="3" width="20" x="589.899" y="96"/></g><g mask="url(#prefix__d)" transform="matrix(.26458 0 0 .26458 -20.771 2.036)"><rect class="prefix__main_B14" height="19" ry="3" width="20" x="526.899" y="96"/></g><g mask="url(#prefix__d)" transform="matrix(.26458 0 0 .26458 -20.771 2.036)"><rect class="prefix__main_B15" height="19" ry="3" width="20" x="547.899" y="96"/></g><g mask="url(#prefix__d)" transform="matrix(.26458 0 0 .26458 -20.771 2.036)"><rect class="prefix__main_A16" height="19" ry="3" width="20" x="568.899" y="117"/></g><g mask="url(#prefix__d)" transform="matrix(.26458 0 0 .26458 -20.771 2.036)"><rect class="prefix__main_A17" height="19" ry="3" width="20" x="589.899" y="117"/></g><g mask="url(#prefix__d)" transform="matrix(.26458 0 0 .26458 -20.771 2.036)"><rect class="prefix__main_A14" height="19" ry="3" width="20" x="526.899" y="117"/></g><g mask="url(#prefix__d)" transform="matrix(.26458 0 0 .26458 -20.771 2.036)"><rect class="prefix__main_A15" height="19" ry="3" width="20" x="547.899" y="117"/></g><g mask="url(#prefix__d)" transform="matrix(.26458 0 0 .26458 -20.771 2.036)"><rect class="prefix__main_B20" height="19" ry="3" width="20" x="652.899" y="96"/></g><g mask="url(#prefix__d)" transform="matrix(.26458 0 0 .26458 -20.771 2.036)"><rect class="prefix__main_B21" height="19" ry="3" width="20" x="673.899" y="96"/></g><g mask="url(#prefix__d)" transform="matrix(.26458 0 0 .26458 -20.771 2.036)"><rect class="prefix__main_B18" height="19" ry="3" width="20" x="610.899" y="96"/></g><g mask="url(#prefix__d)" transform="matrix(.26458 0 0 .26458 -20.771 2.036)"><rect class="prefix__main_B19" height="19" ry="3" width="20" x="631.899" y="96"/></g><g mask="url(#prefix__d)" transform="matrix(.26458 0 0 .26458 -20.771 2.036)"><rect class="prefix__main_A20" height="19" ry="3" width="20" x="652.899" y="117"/></g><g mask="url(#prefix__d)" transform="matrix(.26458 0 0 .26458 -20.771 2.036)"><rect class="prefix__main_A21" height="19" ry="3" width="20" x="673.899" y="117"/></g><g mask="url(#prefix__d)" transform="matrix(.26458 0 0 .26458 -20.771 2.036)"><rect class="prefix__main_A18" height="19" ry="3" width="20" x="610.899" y="117"/></g><g mask="url(#prefix__d)" transform="matrix(.26458 0 0 .26458 -20.771 2.036)"><rect class="prefix__main_A19" height="19" ry="3" width="20" x="631.899" y="117"/></g></g><text style="line-height:3.05" x="344.819" y="46.573" font-size="7" font-family="sans-serif" letter-spacing="0" word-spacing="0" transform="matrix(.26458 0 0 .26458 -20.771 2.036)"><tspan x="344.819" y="46.573">D</tspan> <tspan x="344.819" y="67.923">C</tspan> </text><text style="line-height:3.05" x="344.997" y="106.608" font-size="7" font-family="sans-serif" transform="matrix(.26458 0 0 .26458 -20.771 2.036)"><tspan x="344.997" y="106.608">B</tspan> <tspan x="344.997" y="127.958">A</tspan></text><text style="line-height:3.05" x="236.694" y="47.323" font-size="7" font-family="sans-serif" letter-spacing="0" word-spacing="0" transform="matrix(.26458 0 0 .26458 -20.771 2.036)"><tspan x="236.694" y="47.323">D</tspan> <tspan x="236.694" y="68.673">C</tspan> </text><text style="line-height:3.05" x="236.872" y="107.358" font-size="7" font-family="sans-serif" transform="matrix(.26458 0 0 .26458 -20.771 2.036)"><tspan x="236.872" y="107.358">B</tspan> <tspan x="236.872" y="128.708">A</tspan></text><g font-size="7" font-family="sans-serif"><text style="line-height:1.25" x="256.447" y="87.405" word-spacing="0" transform="matrix(.26458 0 0 .26458 -20.771 2.036)"><tspan x="256.447" y="87.405"> <tspan word-spacing="14.17">1 2 3 4</tspan> </tspan></text><text style="line-height:1.25" x="365.735" y="87.409" transform="matrix(.26458 0 0 .26458 -20.771 2.036)"><tspan x="365.735" y="87.409">6</tspan></text><text style="line-height:1.25" x="386.936" y="87.517" transform="matrix(.26458 0 0 .26458 -20.771 2.036)"><tspan x="386.936" y="87.517">7</tspan></text><text style="line-height:1.25" x="407.723" y="87.391" transform="matrix(.26458 0 0 .26458 -20.771 2.036)"><tspan x="407.723" y="87.391">8</tspan></text><text style="line-height:1.25" x="428.66" y="87.397" transform="matrix(.26458 0 0 .26458 -20.771 2.036)"><tspan x="428.66" y="87.397">9</tspan></text><text style="line-height:1.25" x="448.389" y="87.485" letter-spacing="-1" transform="matrix(.26458 0 0 .26458 -20.771 2.036)"><tspan x="448.389" y="87.485">10</tspan></text><text style="line-height:1.25" x="470.087" y="87.511" letter-spacing="-1.16" transform="matrix(.26458 0 0 .26458 -20.771 2.036)"><tspan x="470.087" y="87.511">11</tspan></text><text style="line-height:1.25" x="490.93" y="87.479" letter-spacing="-1" transform="matrix(.26458 0 0 .26458 -20.771 2.036)"><tspan x="490.93" y="87.479">12</tspan></text><text style="line-height:1.25" x="511.238" y="87.479" letter-spacing="-1" transform="matrix(.26458 0 0 .26458 -20.771 2.036)"><tspan x="511.238" y="87.479">13</tspan></text><text style="line-height:1.25" x="532.817" y="87.479" letter-spacing="-1" transform="matrix(.26458 0 0 .26458 -20.771 2.036)"><tspan x="532.817" y="87.479">14</tspan></text><text style="line-height:1.25" x="553.566" y="87.491" letter-spacing="-1" transform="matrix(.26458 0 0 .26458 -20.771 2.036)"><tspan x="553.566" y="87.491">15</tspan></text><text style="line-height:1.25" x="574.395" y="87.473" letter-spacing="-1" transform="matrix(.26458 0 0 .26458 -20.771 2.036)"><tspan x="574.395" y="87.473">16</tspan></text><text style="line-height:1.25" x="595.301" y="87.466" letter-spacing="-1" transform="matrix(.26458 0 0 .26458 -20.771 2.036)"><tspan x="595.301" y="87.466">17</tspan></text><text style="line-height:1.25" x="616.389" y="87.466" letter-spacing="-1" transform="matrix(.26458 0 0 .26458 -20.771 2.036)"><tspan x="616.389" y="87.466">18</tspan></text><text style="line-height:1.25" x="637.433" y="87.473" letter-spacing="-1" transform="matrix(.26458 0 0 .26458 -20.771 2.036)"><tspan x="637.433" y="87.473">19</tspan></text><text style="line-height:1.25" x="659.144" y="87.479" letter-spacing="-1" transform="matrix(.26458 0 0 .26458 -20.771 2.036)"><tspan x="659.144" y="87.479">20</tspan></text><text style="line-height:1.25" x="680.679" y="87.466" letter-spacing="-1" transform="matrix(.26458 0 0 .26458 -20.771 2.036)"><tspan x="680.679" y="87.466">21</tspan></text></g><g fill="#00416B"><g mask="url(#prefix__d)" transform="matrix(.26458 0 0 .26458 -20.771 2.036)"><rect class="prefix__premium_B6" height="19" ry="3" width="20" x="357.899" y="96"/><path d="M364.61 102.394l-2.01-.703-1.7 1.309.026-2.188-1.733-1.263 2.027-.65.63-2.09 1.226 1.787 2.122-.028-1.27 1.754z" fill="#fff" fill-opacity=".949"/></g><g mask="url(#prefix__d)" transform="matrix(.26458 0 0 .26458 -20.771 2.036)"><rect class="prefix__premium_B7" height="19" ry="3" width="20" x="378.899" y="96"/><path d="M385.74 102.394l-2.01-.703-1.702 1.309.028-2.188-1.733-1.263 2.026-.65.63-2.09 1.226 1.787 2.122-.028-1.27 1.754z" fill="#fff" fill-opacity=".949"/></g><g mask="url(#prefix__d)" transform="matrix(.26458 0 0 .26458 -20.771 2.036)"><rect class="prefix__premium_B8" height="19" ry="3" width="20" x="399.899" y="96"/><path d="M406.798 102.394l-2.01-.703-1.7 1.309.026-2.188-1.733-1.263 2.027-.65.63-2.09 1.226 1.787 2.122-.028-1.27 1.754z" fill="#fff" fill-opacity=".949"/></g><g mask="url(#prefix__d)" transform="matrix(.26458 0 0 .26458 -20.771 2.036)"><rect class="prefix__premium_A6" height="19" ry="3" width="20" x="357.899" y="117"/><path d="M364.61 123.394l-2.01-.703-1.7 1.309.026-2.188-1.733-1.263 2.027-.65.63-2.09 1.226 1.787 2.122-.028-1.27 1.754z" fill="#fff" fill-opacity=".949"/></g><g mask="url(#prefix__d)" transform="matrix(.26458 0 0 .26458 -20.771 2.036)"><rect class="prefix__premium_A7" height="19" ry="3" width="20" x="378.899" y="117"/><path d="M385.74 123.394l-2.01-.703-1.702 1.309.028-2.188-1.733-1.263 2.026-.65.63-2.09 1.226 1.787 2.122-.028-1.27 1.754z" fill="#fff" fill-opacity=".949"/></g><g mask="url(#prefix__d)" transform="matrix(.26458 0 0 .26458 -20.771 2.036)"><rect class="prefix__premium_A8" height="19" ry="3" width="20" x="399.899" y="117"/><path d="M406.798 123.394l-2.01-.703-1.7 1.309.026-2.188-1.733-1.263 2.027-.65.63-2.09 1.226 1.787 2.122-.028-1.27 1.754z" fill="#fff" fill-opacity=".949"/></g></g><g fill="#00416B"><g mask="url(#prefix__d)" transform="matrix(.26458 0 0 .26458 -20.771 2.036)"><rect class="prefix__premium_D6" height="19" ry="3" width="20" x="357.899" y="35"/><path d="M364.61 41.394l-2.01-.703L360.9 42l.026-2.188-1.733-1.263 2.027-.65.63-2.09 1.226 1.787 2.122-.028-1.27 1.754z" fill="#fff" fill-opacity=".949"/></g><g mask="url(#prefix__d)" transform="matrix(.26458 0 0 .26458 -20.771 2.036)"><rect class="prefix__premium_D7" height="19" ry="3" width="20" x="378.899" y="35"/><path d="M385.74 41.394l-2.01-.703L382.027 42l.028-2.188-1.733-1.263 2.026-.65.63-2.09 1.226 1.787 2.122-.028-1.27 1.754z" fill="#fff" fill-opacity=".949"/></g><g mask="url(#prefix__d)" transform="matrix(.26458 0 0 .26458 -20.771 2.036)"><rect class="prefix__premium_D8" height="19" ry="3" width="20" x="399.899" y="35"/><path d="M406.798 41.394l-2.01-.703-1.7 1.309.026-2.188-1.733-1.263 2.027-.65.63-2.09 1.226 1.787 2.122-.028-1.27 1.754z" fill="#fff" fill-opacity=".949"/></g><g mask="url(#prefix__d)" transform="matrix(.26458 0 0 .26458 -20.771 2.036)"><rect class="prefix__premium_C6" height="19" ry="3" width="20" x="357.899" y="56"/><path d="M364.61 62.394l-2.01-.703L360.9 63l.026-2.188-1.733-1.263 2.027-.65.63-2.09 1.226 1.787 2.122-.028-1.27 1.754z" fill="#fff" fill-opacity=".949"/></g><g mask="url(#prefix__d)" transform="matrix(.26458 0 0 .26458 -20.771 2.036)"><rect class="prefix__premium_C7" height="19" ry="3" width="20" x="378.899" y="56"/><path d="M385.74 62.394l-2.01-.703L382.027 63l.028-2.188-1.733-1.263 2.026-.65.63-2.09 1.226 1.787 2.122-.028-1.27 1.754z" fill="#fff" fill-opacity=".949"/></g><g mask="url(#prefix__d)" transform="matrix(.26458 0 0 .26458 -20.771 2.036)"><rect class="prefix__premium_C8" height="19" ry="3" width="20" x="399.899" y="56"/><path d="M406.798 62.394l-2.01-.703-1.7 1.309.026-2.188-1.733-1.263 2.027-.65.63-2.09 1.226 1.787 2.122-.028-1.27 1.754z" fill="#fff" fill-opacity=".949"/></g></g><g transform="matrix(.26458 0 0 .26458 -20.771 2.036)"><rect height="39.421" ry="1.1" width="18.451" x="187.033" y="34.956" fill="#c8c9c7"/><path d="M200.318 51.555l.018 6.1c0 .279-.098.546-.275.745l-.442.494c-.085.095-.232.03-.232-.104l-.025-8.364c0-.134.147-.2.232-.106l.445.492c.178.198.279.465.28.743zm-5.09-3.828c.956-.003 1.734.85 1.737 1.905 0 .376-.097.727-.266 1.023 1.394.195 2.483 1.514 2.488 3.102l.005 1.702c.005 1.723-1.27 3.136-2.833 3.14l-3.017.007c-.248.001-.452-.223-.453-.497.127-2.324.12-4.648-.02-6.972-.001-.274.201-.499.45-.5h.44a2.048 2.048 0 01-.258-.997c-.003-1.054.77-1.91 1.726-1.913zm.001.607c-.652.002-1.18.586-1.177 1.305.001.4.166.758.424.996l1.52-.003c.257-.24.42-.598.418-.999-.002-.719-.532-1.3-1.185-1.299z"/></g><g transform="matrix(.26458 0 0 .26458 -20.771 2.036)"><rect height="39.421" ry="1.1" width="18.451" x="716.258" y="95.118" fill="#c8c9c7"/><path d="M720.594 119.941h-.493v-3.946h-1.044l.136-.555.137-.555.521-1.447.522-1.446-.092-.403-.091-.404-.447 1.542-.447 1.542h-.675v-1.146l.405-1.215.405-1.216.242-.308.242-.308h1.267l-.439-.32-.438-.321.083-.728.083-.728h1.726l.083.728.083.728-.438.32-.439.32h1.267l.279.336.278.335.492 1.43.492 1.43v.663h-.908l-.328-1.369-.329-1.368-.204-.126-.205-.126v.323l.392 1.345.39 1.346.348.665.347.666.001.185.002.185h-1.233v3.946h-.986v-3.946h-.494v3.946zm7.893 0h-.494l-.047-4.13-.048-4.132-.087 1.541-.088 1.542h-.716V110.667l.296-.295.296-.296h3.256l.296.296.296.295V114.762h-.717l-.087-1.542-.088-1.541-.048 4.131-.047 4.131h-.987v-4.933h-.493v4.933zm-2.96-.74h-.247v-10.605h.494V119.2zm3.76-9.418l-.804.077-.14-.367-.142-.368.081-.573.082-.573h1.726V109.706z"/></g><g transform="matrix(.26458 0 0 .26458 -20.771 2.036)"><rect height="39.421" ry="1.1" width="18.451" x="737.638" y="34.62" fill="#c8c9c7"/><path d="M750.561 51.532l.018 6.1c0 .278-.098.546-.275.744l-.442.495c-.085.095-.232.028-.232-.105l-.025-8.364c0-.134.147-.2.232-.106l.445.492c.178.198.278.465.28.744zm-5.09-3.829c.956-.002 1.734.85 1.737 1.905 0 .377-.097.728-.266 1.024 1.394.194 2.483 1.514 2.488 3.101l.005 1.702c.005 1.724-1.27 3.137-2.833 3.14l-3.017.008c-.248 0-.452-.224-.453-.498.127-2.324.12-4.648-.02-6.971-.001-.274.201-.5.45-.5h.44a2.048 2.048 0 01-.258-.997c-.003-1.055.77-1.912 1.726-1.914zm.001.608c-.652.001-1.18.585-1.177 1.304 0 .4.166.758.424.996l1.52-.003c.257-.24.42-.598.418-.998-.002-.72-.532-1.301-1.185-1.3z"/></g><g fill="#994441" transform="matrix(.26458 0 0 .26458 -20.771 2.036)"><text style="line-height:1.25" x="214.051" y="150.603" font-size="7" font-family="sans-serif" letter-spacing="-1"><tspan x="214.051" y="150.603">EXIT</tspan></text><rect height="1.801" ry="0" width="18.665" x="211.186" y="138.077"/></g><g fill="#994441" transform="matrix(.26458 0 0 .26458 -20.771 2.036)"><text style="line-height:1.25" x="213.967" y="20.698" font-size="7" font-family="sans-serif" letter-spacing="-1"><tspan x="213.967" y="20.698">EXIT</tspan></text><rect height="1.801" ry="0" width="18.665" x="210.879" y="29.505"/></g><g fill="#994441" transform="matrix(.26458 0 0 .26458 -20.771 2.036)"><rect height="1.801" ry="0" width="18.665" x="695.166" y="137.504"/><text style="line-height:1.25" x="697.866" y="150.453" font-size="7" font-family="sans-serif" letter-spacing="-1"><tspan x="697.866" y="150.453">EXIT</tspan></text></g><g fill="#994441" transform="matrix(.26458 0 0 .26458 -20.771 2.036)"><rect height="1.801" ry="0" width="18.665" x="695.125" y="29.567"/><text style="line-height:1.25" x="697.62" y="20.493" font-size="7" font-family="sans-serif" letter-spacing="-1"><tspan x="697.62" y="20.493">EXIT</tspan></text></g></svg>