<?xml version="1.0" encoding="utf-8"?>
<svg version="1.1" viewBox="0 0 186 50" xmlns="http://www.w3.org/2000/svg" xmlns:xlink="http://www.w3.org/1999/xlink">
<defs>
<rect height="55" id="rect6458" width="10" x="155" y="40"/>
<rect height="19" id="path2" width="20" x="0" y="0"/>
<polygon id="path-1" points="0 0 63.2112676 0 63.2112676 315.405983 0 315.405983"/>
<circle cx="50%" cy="50%" fill="black" height="19" id="circ" r="2" width="20" x="0" y="0"/>
<polygon fill="black" height="19" id="cros" points="19 0 20 0 0 19 0 18" width="20" x="0" xmlns="http://www.w3.org/2000/svg" y="0"/>
</defs>
<mask fill="white" id="mask-2" maskContentUnits="objectBoundingBox">
<use xlink:href="#path-1"/>
</mask>
<mask fill="red" id="taken" maskContentUnits="objectBoundingBox">
<rect height="19" id="path2" width="20" x="0" y="0"/>
</mask>
<mask color="cyan" id="choosen" maskContentUnits="objectBoundingBox">
<use xlink:href="#path2"/>
</mask>
<g groupmode="layer" id="layer1" label="Warstwa 1" transform="translate(-13.326478,-130.24766)">
<g id="g15" label="Image" transform="matrix(0.26458333,0,0,0.26458333,-7.4448876,132.28399)">
<text id="text6456" space="preserve" style="font-style:normal;font-weight:normal;font-size:40px;line-height:1.25;font-family:sans-serif;white-space:pre;shape-inside:url(#rect6458);fill:#000000;fill-opacity:1;stroke:none"/>
<text id="text24596" space="preserve" style="font-size:40px;line-height:1.25;font-family:sans-serif;writing-mode:lr-tb" x="155" y="110">
<tspan id="tspan24594" role="line" x="155" y="110"/></text>
<text id="text67181" space="preserve" style="font-size:7px;line-height:1.25;font-family:sans-serif" x="265" y="80">
<tspan id="tspan67179" role="line" x="265" y="80"/></text>
<g id="g11376">
<path d="m 417.8398,156.45248 -13.9699,-13.94652 -121.13501,-0.26484 -121.135,-0.26484 -12.51095,-4.86072 C 110.11562,121.97373 89.183753,109.2047 81.26517,95.741098 77.93321,90.07592 77.581265,82.057939 80.414682,76.365348 87.037388,63.059724 108.59158,49.194323 146.08631,34.120066 l 14.5127,-5.834653 121.63158,-0.260988 121.63159,-0.26098 13.97376,-13.950378 13.97378,-13.95036994 h 64.31972 64.31971 V 13.824735 27.786774 l 100.83832,0.0067 c 97.76732,0.006 100.92711,0.06492 103.7546,1.922184 5.66951,3.724095 10.67348,13.436466 14.39508,27.939889 1.32208,5.152275 1.66588,11.062406 1.62729,27.974087 -0.0431,18.887316 -0.30966,22.381516 -2.23753,29.330576 -4.30071,15.50187 -10.13829,24.57945 -17.03371,26.48777 -2.37759,0.65802 -38.49317,1.01792 -102.5075,1.02152 l -98.83655,0.005 v 13.96204 13.96204 h -64.31971 -64.31972 z" id="path22344" style="fill:#F5F5F5;"/>
<g id="g11564">
<rect height="39.420788" id="wc" ry="1.0998458" style="fill:#C8C9C7" width="18.450768" x="166.07632" y="94.958717"/>
<path d="m 170.55619,119.51133 h -0.4933 v -1.97319 -1.97316 h -0.52204 -0.52205 l 0.13668,-0.55495 0.13667,-0.55495 0.52128,-1.44676 0.52129,-1.44674 -0.0915,-0.40309 -0.0915,-0.40311 -0.44692,1.54154 -0.44692,1.54153 h -0.33746 -0.33747 v -0.57267 -0.57267 l 0.40493,-1.21552 0.40492,-1.2155 0.24189,-0.30831 0.24189,-0.3083 h 0.63356 0.63355 l -0.43827,-0.32048 -0.43826,-0.32048 0.0828,-0.72775 0.0828,-0.72779 h 0.86326 0.86326 l 0.0828,0.72779 0.0828,0.72775 -0.43827,0.32048 -0.43827,0.32048 h 0.63356 0.63355 l 0.27815,0.33515 0.27816,0.33515 0.49198,1.42997 0.49199,1.43 v 0.33135 0.33135 h -0.4539 -0.4539 l -0.32819,-1.36804 -0.32819,-1.36805 -0.20449,-0.12643 -0.2045,-0.12641 v 0.16157 0.16158 l 0.39114,1.34545 0.39113,1.34547 0.34728,0.66567 0.34729,0.66568 0.002,0.18498 0.001,0.18498 h -0.61662 -0.61661 v 1.97317 1.97319 h -0.49329 -0.4933 v -1.97319 -1.97317 h -0.24657 -0.24665 v 1.97317 1.97319 z m 7.89267,0 h -0.49329 l -0.0475,-4.13133 -0.0475,-4.13132 -0.0876,1.54153 -0.0876,1.54154 h -0.35821 -0.3582 v -2.04717 -2.04715 l 0.29598,-0.29598 0.29597,-0.29597 h 1.62787 1.62786 l 0.29597,0.29597 0.29599,0.29598 v 2.04715 2.04717 h -0.35821 -0.3582 l -0.0876,-1.54154 -0.0876,-1.54153 -0.0475,4.13132 -0.0475,4.13133 h -0.49329 -0.49329 v -2.46646 -2.46647 h -0.24666 -0.24664 v 2.46647 2.46646 z m -2.95975,-0.73996 h -0.24665 v -5.30288 -5.30289 h 0.24665 0.24665 v 5.30289 5.30288 z m 3.75966,-9.41845 -0.8033,0.0774 -0.14113,-0.36779 -0.14113,-0.36777 0.0812,-0.5729 0.0812,-0.5729 h 0.86326 0.86327 v 0.86327 0.86326 z" id="path24185" style="fill:#000000;stroke-width:0.246645"/>
</g>
<g id="g11386" transform="translate(0,0)">
<g fill="#00416B" mask="url(#mask-2)">
<rect class="first_D3" height="19" ry="3" width="20" x="291.89929" y="36"/>
</g>
<g fill="#00416B" mask="url(#mask-2)">
<rect class="first_D4" height="19" ry="3" width="20" x="312.89929" y="36"/>
</g>
<g fill="#00416B" mask="url(#mask-2)">
<rect class="first_D1" height="19" ry="3" width="20" x="249.89931" y="36"/>
</g>
<g fill="#00416B" mask="url(#mask-2)">
<rect class="first_D2" height="19" ry="3" width="20" x="270.89929" y="36"/>
</g>
<g fill="#00416B" mask="url(#mask-2)">
<rect class="first_C3" height="19" ry="3" width="20" x="291.89929" y="57"/>
</g>
<g fill="#00416B" mask="url(#mask-2)">
<rect class="first_C4" height="19" ry="3" width="20" x="312.89929" y="57"/>
</g>
<g fill="#00416B" mask="url(#mask-2)">
<rect class="first_C1" height="19" ry="3" width="20" x="249.89931" y="57"/>
</g>
<g fill="#00416B" mask="url(#mask-2)">
<rect class="first_C2" height="19" ry="3" width="20" x="270.89929" y="57"/>
</g>
</g>
<g id="g11392">
<g fill="#00416B" mask="url(#mask-2)">
<rect class="first_A3" height="19" ry="3" width="20" x="291.89929" y="117"/></g>
<g fill="#00416B" mask="url(#mask-2)">
<rect class="first_A4" height="19" ry="3" width="20" x="312.89929" y="117"/></g>
<g fill="#00416B" mask="url(#mask-2)">
<rect class="first_A1" height="19" ry="3" width="20" x="249.89931" y="117"/></g>
<g fill="#00416B" mask="url(#mask-2)">
<rect class="first_A2" height="19" ry="3" width="20" x="270.89929" y="117"/></g>
</g>
<g id="g11508">
<g fill="#43A9C7" mask="url(#mask-2)">
<rect class="main_D9" height="19" ry="3" width="20" x="421.89929" y="35"/></g>
<g fill="#43A9C7" mask="url(#mask-2)">
<rect class="main_C9" height="19" ry="3" width="20" x="421.89929" y="56"/></g>
<g fill="#43A9C7" mask="url(#mask-2)">
<rect class="main_D12" height="19" ry="3" width="20" x="484.89929" y="35"/></g>
<g fill="#43A9C7" mask="url(#mask-2)">
<rect class="main_D13" height="19" ry="3" width="20" x="505.89929" y="35"/></g>
<g fill="#43A9C7" mask="url(#mask-2)">
<rect class="main_D10" height="19" ry="3" width="20" x="442.89929" y="35"/></g>
<g fill="#43A9C7" mask="url(#mask-2)">
<rect class="main_D11" height="19" ry="3" width="20" x="463.89929" y="35"/></g>
<g fill="#43A9C7" mask="url(#mask-2)">
<rect class="main_C12" height="19" ry="3" width="20" x="484.89929" y="56"/></g>
<g fill="#43A9C7" mask="url(#mask-2)">
<rect class="main_C13" height="19" ry="3" width="20" x="505.89929" y="56"/></g>
<g fill="#43A9C7" mask="url(#mask-2)">
<rect class="main_C10" height="19" ry="3" width="20" x="442.89929" y="56"/></g>
<g fill="#43A9C7" mask="url(#mask-2)">
<rect class="main_C11" height="19" ry="3" width="20" x="463.89929" y="56"/></g>
<g fill="#43A9C7" mask="url(#mask-2)">
<rect class="main_D16" height="19" ry="3" width="20" x="568.89929" y="35"/></g>
<g fill="#43A9C7" mask="url(#mask-2)">
<rect class="main_D17" height="19" ry="3" width="20" x="589.89929" y="35"/></g>
<g fill="#43A9C7" mask="url(#mask-2)">
<rect class="main_D14" height="19" ry="3" width="20" x="526.89929" y="35"/></g>
<g fill="#43A9C7" mask="url(#mask-2)">
<rect class="main_D15" height="19" ry="3" width="20" x="547.89929" y="35"/></g>
<g fill="#43A9C7" mask="url(#mask-2)">
<rect class="main_C16" height="19" ry="3" width="20" x="568.89929" y="56"/></g>
<g fill="#43A9C7" mask="url(#mask-2)">
<rect class="main_C17" height="19" ry="3" width="20" x="589.89929" y="56"/></g>
<g fill="#43A9C7" mask="url(#mask-2)">
<rect class="main_C14" height="19" ry="3" width="20" x="526.89929" y="56"/></g>
<g fill="#43A9C7" mask="url(#mask-2)">
<rect class="main_C15" height="19" ry="3" width="20" x="547.89929" y="56"/></g>
<g fill="#43A9C7" mask="url(#mask-2)">
<rect class="main_D20" height="19" ry="3" width="20" x="652.89929" y="35"/></g>
<g fill="#43A9C7" mask="url(#mask-2)">
<rect class="main_D21" height="19" ry="3" width="20" x="673.89929" y="35"/></g>
<g fill="#43A9C7" mask="url(#mask-2)">
<rect class="main_D18" height="19" ry="3" width="20" x="610.89929" y="35"/></g>
<g fill="#43A9C7" mask="url(#mask-2)">
<rect class="main_D19" height="19" ry="3" width="20" x="631.89929" y="35"/></g>
<g fill="#43A9C7" mask="url(#mask-2)">
<rect class="main_C20" height="19" ry="3" width="20" x="652.89929" y="56"/></g>
<g fill="#43A9C7" mask="url(#mask-2)">
<rect class="main_C21" height="19" ry="3" width="20" x="673.89929" y="56"/></g>
<g fill="#43A9C7" mask="url(#mask-2)">
<rect class="main_C18" height="19" ry="3" width="20" x="610.89929" y="56"/></g>
<g fill="#43A9C7" mask="url(#mask-2)">
<rect class="main_C19" height="19" ry="3" width="20" x="631.89929" y="56"/></g>
</g>
<g id="g11536">
<g fill="#43A9C7" mask="url(#mask-2)">
<rect class="main_B9" height="19" ry="3" width="20" x="421.89929" y="96"/></g>
<g fill="#43A9C7" mask="url(#mask-2)">
<rect class="main_A9" height="19" ry="3" width="20" x="421.89929" y="117"/></g>
<g fill="#43A9C7" mask="url(#mask-2)">
<rect class="main_B12" height="19" ry="3" width="20" x="484.89929" y="96"/></g>
<g fill="#43A9C7" mask="url(#mask-2)">
<rect class="main_B13" height="19" ry="3" width="20" x="505.89929" y="96"/></g>
<g fill="#43A9C7" mask="url(#mask-2)">
<rect class="main_B10" height="19" ry="3" width="20" x="442.89929" y="96"/></g>
<g fill="#43A9C7" mask="url(#mask-2)">
<rect class="main_B11" height="19" ry="3" width="20" x="463.89929" y="96"/></g>
<g fill="#43A9C7" mask="url(#mask-2)">
<rect class="main_A12" height="19" ry="3" width="20" x="484.89929" y="117"/></g>
<g fill="#43A9C7" mask="url(#mask-2)">
<rect class="main_A13" height="19" ry="3" width="20" x="505.89929" y="117"/></g>
<g fill="#43A9C7" mask="url(#mask-2)">
<rect class="main_A10" height="19" ry="3" width="20" x="442.89929" y="117"/></g>
<g fill="#43A9C7" mask="url(#mask-2)">
<rect class="main_A11" height="19" ry="3" width="20" x="463.89929" y="117"/></g>
<g fill="#43A9C7" mask="url(#mask-2)">
<rect class="main_B16" height="19" ry="3" width="20" x="568.89929" y="96"/></g>
<g fill="#43A9C7" mask="url(#mask-2)">
<rect class="main_B17" height="19" ry="3" width="20" x="589.89929" y="96"/></g>
<g fill="#43A9C7" mask="url(#mask-2)">
<rect class="main_B14" height="19" ry="3" width="20" x="526.89929" y="96"/></g>
<g fill="#43A9C7" mask="url(#mask-2)">
<rect class="main_B15" height="19" ry="3" width="20" x="547.89929" y="96"/></g>
<g fill="#43A9C7" mask="url(#mask-2)">
<rect class="main_A16" height="19" ry="3" width="20" x="568.89929" y="117"/></g>
<g fill="#43A9C7" mask="url(#mask-2)">
<rect class="main_A17" height="19" ry="3" width="20" x="589.89929" y="117"/></g>
<g fill="#43A9C7" mask="url(#mask-2)">
<rect class="main_A14" height="19" ry="3" width="20" x="526.89929" y="117"/></g>
<g fill="#43A9C7" mask="url(#mask-2)">
<rect class="main_A15" height="19" ry="3" width="20" x="547.89929" y="117"/></g>
<g fill="#43A9C7" mask="url(#mask-2)">
<rect class="main_B20" height="19" ry="3" width="20" x="652.89929" y="96"/></g>
<g fill="#43A9C7" mask="url(#mask-2)">
<rect class="main_B21" height="19" ry="3" width="20" x="673.89929" y="96"/></g>
<g fill="#43A9C7" mask="url(#mask-2)">
<rect class="main_B18" height="19" ry="3" width="20" x="610.89929" y="96"/></g>
<g fill="#43A9C7" mask="url(#mask-2)">
<rect class="main_B19" height="19" ry="3" width="20" x="631.89929" y="96"/></g>
<g fill="#43A9C7" mask="url(#mask-2)">
<rect class="main_A20" height="19" ry="3" width="20" x="652.89929" y="117"/></g>
<g fill="#43A9C7" mask="url(#mask-2)">
<rect class="main_A21" height="19" ry="3" width="20" x="673.89929" y="117"/></g>
<g fill="#43A9C7" mask="url(#mask-2)">
<rect class="main_A18" height="19" ry="3" width="20" x="610.89929" y="117"/></g>
<g fill="#43A9C7" mask="url(#mask-2)">
<rect class="main_A19" height="19" ry="3" width="20" x="631.89929" y="117"/></g>
</g>
<text id="text9368" space="preserve" style="font-size:7px;line-height:3.05;font-family:sans-serif;letter-spacing:0px;word-spacing:0px;writing-mode:lr-tb" x="344.81906" y="46.573364">
<tspan id="tspan9366" role="line" style="font-size:7px" x="344.81906" y="46.573364">D</tspan>
<tspan id="tspan13458" role="line" style="font-size:7px" x="344.81906" y="67.923363">C</tspan>
<tspan id="tspan13462" role="line" style="font-size:7px" x="344.81906" y="89.273361"/>
</text>
<text id="text32168" space="preserve" style="font-size:7px;line-height:3.05;font-family:sans-serif" x="344.99664" y="106.60836">
<tspan id="tspan32166" role="line" style="font-size:7px" x="344.99664" y="106.60836">B</tspan>
<tspan id="tspan32302" role="line" style="font-size:7px" x="344.99664" y="127.95836">A</tspan>
</text>
<text id="text9368-5" space="preserve" style="font-size:7px;line-height:3.05;font-family:sans-serif;letter-spacing:0px;word-spacing:0px;writing-mode:lr-tb" x="236.69408" y="47.323364">
<tspan id="tspan9366-2" role="line" style="font-size:7px" x="236.69408" y="47.323364">D</tspan>
<tspan id="tspan13458-0" role="line" style="font-size:7px" x="236.69408" y="68.673363">C</tspan>
<tspan id="tspan13462-6" role="line" style="font-size:7px" x="236.69408" y="90.023361"/>
</text>
<text id="text32168-8" space="preserve" style="font-size:7px;line-height:3.05;font-family:sans-serif" x="236.87166" y="107.35836">
<tspan id="tspan32166-5" role="line" style="font-size:7px" x="236.87166" y="107.35836">B</tspan>
<tspan id="tspan32302-7" role="line" style="font-size:7px" x="236.87166" y="128.70836">A</tspan>
</text>
<g id="g11621">
<text id="text42798" space="preserve" style="font-size:7px;line-height:1.25;font-family:sans-serif;word-spacing:0px" x="256.44742" y="87.404922">
<tspan id="tspan42796" role="line" style="font-size:7px" x="256.44742" y="87.404922">
<tspan id="tspan56222" style="word-spacing:14.17px">1 2 3 4</tspan>
</tspan>
</text>
<text id="text150951" space="preserve" style="font-size:7px;line-height:1.25;font-family:sans-serif" x="365.73511" y="87.409241">
<tspan id="tspan150949" role="line" x="365.73511" y="87.409241">6</tspan>
</text>
<text id="text152011" space="preserve" style="font-size:7px;line-height:1.25;font-family:sans-serif" x="386.93643" y="87.516502">
<tspan id="tspan152009" role="line" x="386.93643" y="87.516502">7</tspan>
</text>
<text id="text153833" space="preserve" style="font-size:7px;line-height:1.25;font-family:sans-serif" x="407.7225" y="87.390678">
<tspan id="tspan153831" role="line" x="407.7225" y="87.390678">8</tspan>
</text>
<text id="text155069" space="preserve" style="font-size:7px;line-height:1.25;font-family:sans-serif" x="428.65961" y="87.397278">
<tspan id="tspan155067" role="line" x="428.65961" y="87.397278">9</tspan>
</text>
<text id="text155557" space="preserve" style="font-size:7px;line-height:1.25;font-family:sans-serif;letter-spacing:-1px" x="448.3894" y="87.484741">
<tspan id="tspan155555" role="line" x="448.3894" y="87.484741">10</tspan>
</text>
<text id="text160067" space="preserve" style="font-size:7px;line-height:1.25;font-family:sans-serif;letter-spacing:-1.16px" x="470.0874" y="87.510521">
<tspan id="tspan160065" role="line" x="470.0874" y="87.510521">11</tspan>
</text>
<text id="text161787" space="preserve" style="font-size:7px;line-height:1.25;font-family:sans-serif;letter-spacing:-1px" x="490.93045" y="87.47876">
<tspan id="tspan161785" role="line" x="490.93045" y="87.47876">12</tspan>
</text>
<text id="text163891" space="preserve" style="font-size:7px;line-height:1.25;font-family:sans-serif;letter-spacing:-1px" x="511.2384" y="87.47876">
<tspan id="tspan163889" role="line" x="511.2384" y="87.47876">13</tspan>
</text>
<text id="text167723" space="preserve" style="font-size:7px;line-height:1.25;font-family:sans-serif;letter-spacing:-1px" x="532.81659" y="87.47876">
<tspan id="tspan167721" role="line" x="532.81659" y="87.47876">14</tspan>
</text>
<text id="text171297" space="preserve" style="font-size:7px;line-height:1.25;font-family:sans-serif;letter-spacing:-1px" x="553.56555" y="87.491341">
<tspan id="tspan171295" role="line" x="553.56555" y="87.491341">15</tspan>
</text>
<text id="text173707" space="preserve" style="font-size:7px;line-height:1.25;font-family:sans-serif;letter-spacing:-1px" x="574.39539" y="87.472778">
<tspan id="tspan173705" role="line" x="574.39539" y="87.472778">16</tspan>
</text>
<text id="text174941" space="preserve" style="font-size:7px;line-height:1.25;font-family:sans-serif;letter-spacing:-1px" x="595.30133" y="87.466171">
<tspan id="tspan174939" role="line" x="595.30133" y="87.466171">17</tspan>
</text>
<text id="text175935" space="preserve" style="font-size:7px;line-height:1.25;font-family:sans-serif;letter-spacing:-1px" x="616.3894" y="87.466171">
<tspan id="tspan175933" role="line" x="616.3894" y="87.466171">18</tspan>
</text>
<text id="text176731" space="preserve" style="font-size:7px;line-height:1.25;font-family:sans-serif;letter-spacing:-1px" x="637.43317" y="87.472771">
<tspan id="tspan176729" role="line" x="637.43317" y="87.472771">19</tspan>
</text>
<text id="text179129" space="preserve" style="font-size:7px;line-height:1.25;font-family:sans-serif;letter-spacing:-1px" x="659.14435" y="87.47876">
<tspan id="tspan179127" role="line" x="659.14435" y="87.47876">20</tspan>
</text>
<text id="text180441" space="preserve" style="font-size:7px;line-height:1.25;font-family:sans-serif;letter-spacing:-1px" x="680.67877" y="87.466171">
<tspan id="tspan180439" role="line" x="680.67877" y="87.466171">21</tspan>
</text>
</g>
<g id="g11460">
<g fill="#00416B" mask="url(#mask-2)">
<rect class="premium_B6" height="19" ry="3" width="20" x="357.89929" y="96"/>
<path arg1="0.78539816" arg2="1.4137167" cx="282.77878" cy="120.6032" d="m 284.77878,122.6032 -1.77877,-0.60319 -1.50531,1.12334 0.024,-1.87811 -1.53353,-1.0845 1.79361,-0.55754 0.55753,-1.7936 1.08451,1.53353 1.87811,-0.024 -1.12335,1.50531 z" flatsided="false" id="path183451-2" r1="2.8284271" r2="1.4142137" randomized="0" rounded="0" sides="5" style="fill:#ffffff;fill-opacity:0.94902" transform="matrix(1.1300393,0,0,1.1649776,42.799221,-40.435952)" transform-center-x="0.15452223" transform-center-y="-0.15929125" type="star"/>
</g>
<g fill="#00416B" mask="url(#mask-2)">
<rect class="premium_B7" height="19" ry="3" width="20" x="378.89929" y="96"/>
<path arg1="0.78539816" arg2="1.4137167" cx="282.77878" cy="120.6032" d="m 284.77878,122.6032 -1.77877,-0.60319 -1.50531,1.12334 0.024,-1.87811 -1.53353,-1.0845 1.79361,-0.55754 0.55753,-1.7936 1.08451,1.53353 1.87811,-0.024 -1.12335,1.50531 z" flatsided="false" id="path183451-0-1" r1="2.8284271" r2="1.4142137" randomized="0" rounded="0" sides="5" style="fill:#ffffff;fill-opacity:0.94902" transform="matrix(1.1300393,0,0,1.1649776,63.928357,-40.435955)" transform-center-x="0.15452223" transform-center-y="-0.15929125" type="star"/>
</g>
<g fill="#00416B" mask="url(#mask-2)">
<rect class="premium_B8" height="19" ry="3" width="20" x="399.89929" y="96"/>
<path arg1="0.78539816" arg2="1.4137167" cx="282.77878" cy="120.6032" d="m 284.77878,122.6032 -1.77877,-0.60319 -1.50531,1.12334 0.024,-1.87811 -1.53353,-1.0845 1.79361,-0.55754 0.55753,-1.7936 1.08451,1.53353 1.87811,-0.024 -1.12335,1.50531 z" flatsided="false" id="path183451-0-7-6" r1="2.8284271" r2="1.4142137" randomized="0" rounded="0" sides="5" style="fill:#ffffff;fill-opacity:0.94902" transform="matrix(1.1300393,0,0,1.1649776,84.987058,-40.435955)" transform-center-x="0.15452223" transform-center-y="-0.15929125" type="star"/>
</g>
<g fill="#00416B" mask="url(#mask-2)">
<rect class="premium_A6" height="19" ry="3" width="20" x="357.89929" y="117"/>
<path arg1="0.78539816" arg2="1.4137167" cx="282.77878" cy="120.6032" d="m 284.77878,122.6032 -1.77877,-0.60319 -1.50531,1.12334 0.024,-1.87811 -1.53353,-1.0845 1.79361,-0.55754 0.55753,-1.7936 1.08451,1.53353 1.87811,-0.024 -1.12335,1.50531 z" flatsided="false" id="path183451" r1="2.8284271" r2="1.4142137" randomized="0" rounded="0" sides="5" style="fill:#ffffff;fill-opacity:0.94902" transform="matrix(1.1300393,0,0,1.1649776,42.799216,-19.43595)" transform-center-x="0.15452223" transform-center-y="-0.15929125" type="star"/>
</g>
<g fill="#00416B" mask="url(#mask-2)">
<rect class="premium_A7" height="19" ry="3" width="20" x="378.89929" y="117"/>
<path arg1="0.78539816" arg2="1.4137167" cx="282.77878" cy="120.6032" d="m 284.77878,122.6032 -1.77877,-0.60319 -1.50531,1.12334 0.024,-1.87811 -1.53353,-1.0845 1.79361,-0.55754 0.55753,-1.7936 1.08451,1.53353 1.87811,-0.024 -1.12335,1.50531 z" flatsided="false" id="path183451-0" r1="2.8284271" r2="1.4142137" randomized="0" rounded="0" sides="5" style="fill:#ffffff;fill-opacity:0.94902" transform="matrix(1.1300393,0,0,1.1649776,63.928352,-19.435953)" transform-center-x="0.15452223" transform-center-y="-0.15929125" type="star"/>
</g>
<g fill="#00416B" mask="url(#mask-2)">
<rect class="premium_A8" height="19" ry="3" width="20" x="399.89929" y="117"/>
<path arg1="0.78539816" arg2="1.4137167" cx="282.77878" cy="120.6032" d="m 284.77878,122.6032 -1.77877,-0.60319 -1.50531,1.12334 0.024,-1.87811 -1.53353,-1.0845 1.79361,-0.55754 0.55753,-1.7936 1.08451,1.53353 1.87811,-0.024 -1.12335,1.50531 z" flatsided="false" id="path183451-0-7" r1="2.8284271" r2="1.4142137" randomized="0" rounded="0" sides="5" style="fill:#ffffff;fill-opacity:0.94902" transform="matrix(1.1300393,0,0,1.1649776,84.987053,-19.435953)" transform-center-x="0.15452223" transform-center-y="-0.15929125" type="star"/>
</g>
</g>
<g id="g11480">
<g fill="#00416B" mask="url(#mask-2)">
<rect class="premium_D6" height="19" ry="3" width="20" x="357.89929" y="35"/>
<path arg1="0.78539816" arg2="1.4137167" cx="282.77878" cy="120.6032" d="m 284.77878,122.6032 -1.77877,-0.60319 -1.50531,1.12334 0.024,-1.87811 -1.53353,-1.0845 1.79361,-0.55754 0.55753,-1.7936 1.08451,1.53353 1.87811,-0.024 -1.12335,1.50531 z" flatsided="false" id="path183451-2-5" r1="2.8284271" r2="1.4142137" randomized="0" rounded="0" sides="5" style="fill:#ffffff;fill-opacity:0.94902" transform="matrix(1.1300393,0,0,1.1649776,42.799221,-101.43595)" transform-center-x="0.15452223" transform-center-y="-0.15929125" type="star"/>
</g>
<g fill="#00416B" mask="url(#mask-2)">
<rect class="premium_D7" height="19" ry="3" width="20" x="378.89929" y="35"/>
<path arg1="0.78539816" arg2="1.4137167" cx="282.77878" cy="120.6032" d="m 284.77878,122.6032 -1.77877,-0.60319 -1.50531,1.12334 0.024,-1.87811 -1.53353,-1.0845 1.79361,-0.55754 0.55753,-1.7936 1.08451,1.53353 1.87811,-0.024 -1.12335,1.50531 z" flatsided="false" id="path183451-0-1-1" r1="2.8284271" r2="1.4142137" randomized="0" rounded="0" sides="5" style="fill:#ffffff;fill-opacity:0.94902" transform="matrix(1.1300393,0,0,1.1649776,63.928357,-101.43596)" transform-center-x="0.15452223" transform-center-y="-0.15929125" type="star"/>
</g>
<g fill="#00416B" mask="url(#mask-2)">
<rect class="premium_D8" height="19" ry="3" width="20" x="399.89929" y="35"/>
<path arg1="0.78539816" arg2="1.4137167" cx="282.77878" cy="120.6032" d="m 284.77878,122.6032 -1.77877,-0.60319 -1.50531,1.12334 0.024,-1.87811 -1.53353,-1.0845 1.79361,-0.55754 0.55753,-1.7936 1.08451,1.53353 1.87811,-0.024 -1.12335,1.50531 z" flatsided="false" id="path183451-0-7-6-0" r1="2.8284271" r2="1.4142137" randomized="0" rounded="0" sides="5" style="fill:#ffffff;fill-opacity:0.94902" transform="matrix(1.1300393,0,0,1.1649776,84.987058,-101.43596)" transform-center-x="0.15452223" transform-center-y="-0.15929125" type="star"/>
</g>
<g fill="#00416B" mask="url(#mask-2)">
<rect class="premium_C6" height="19" ry="3" width="20" x="357.89929" y="56"/>
<path arg1="0.78539816" arg2="1.4137167" cx="282.77878" cy="120.6032" d="m 284.77878,122.6032 -1.77877,-0.60319 -1.50531,1.12334 0.024,-1.87811 -1.53353,-1.0845 1.79361,-0.55754 0.55753,-1.7936 1.08451,1.53353 1.87811,-0.024 -1.12335,1.50531 z" flatsided="false" id="path183451-4" r1="2.8284271" r2="1.4142137" randomized="0" rounded="0" sides="5" style="fill:#ffffff;fill-opacity:0.94902" transform="matrix(1.1300393,0,0,1.1649776,42.799216,-80.43595)" transform-center-x="0.15452223" transform-center-y="-0.15929125" type="star"/>
</g>
<g fill="#00416B" mask="url(#mask-2)">
<rect class="premium_C7" height="19" ry="3" width="20" x="378.89929" y="56"/>
<path arg1="0.78539816" arg2="1.4137167" cx="282.77878" cy="120.6032" d="m 284.77878,122.6032 -1.77877,-0.60319 -1.50531,1.12334 0.024,-1.87811 -1.53353,-1.0845 1.79361,-0.55754 0.55753,-1.7936 1.08451,1.53353 1.87811,-0.024 -1.12335,1.50531 z" flatsided="false" id="path183451-0-2" r1="2.8284271" r2="1.4142137" randomized="0" rounded="0" sides="5" style="fill:#ffffff;fill-opacity:0.94902" transform="matrix(1.1300393,0,0,1.1649776,63.928352,-80.435953)" transform-center-x="0.15452223" transform-center-y="-0.15929125" type="star"/>
</g>
<g fill="#00416B" mask="url(#mask-2)">
<rect class="premium_C8" height="19" ry="3" width="20" x="399.89929" y="56"/>
<path arg1="0.78539816" arg2="1.4137167" cx="282.77878" cy="120.6032" d="m 284.77878,122.6032 -1.77877,-0.60319 -1.50531,1.12334 0.024,-1.87811 -1.53353,-1.0845 1.79361,-0.55754 0.55753,-1.7936 1.08451,1.53353 1.87811,-0.024 -1.12335,1.50531 z" flatsided="false" id="path183451-0-7-3" r1="2.8284271" r2="1.4142137" randomized="0" rounded="0" sides="5" style="fill:#ffffff;fill-opacity:0.94902" transform="matrix(1.1300393,0,0,1.1649776,84.987053,-80.435953)" transform-center-x="0.15452223" transform-center-y="-0.15929125" type="star"/>
</g>
</g>
<!-- <g id="g11548">
              <rect style="fill:#00416B;fill-opacity:1;fill-rule:evenodd;stroke-width:1.58926" id="ico_premium1"
                width="30.72419" height="31.238674" x="220.09676" y="230.90739" ry="4.9324222" />
              <rect style="fill:#00416B;fill-opacity:1;fill-rule:evenodd;stroke-width:1.58926" id="ico_first1"
                width="30.72419" height="31.238674" x="78.511337" y="231.00615" ry="4.9324222" />
              <path type="star" style="fill:#ffffff;fill-opacity:0.94902" id="path183451-1"
                flatsided="false" sides="5" cx="282.77878" cy="120.6032"
                r1="2.8284271" r2="1.4142137" arg1="0.78539816" arg2="1.4137167"
                rounded="0" randomized="0" transform-center-x="0.23737614"
                transform-center-y="-0.26189783"
                transform="matrix(1.7359771,0,0,1.9153871,-263.96299,6.5874604)"
                d="m 284.77878,122.6032 -1.77877,-0.60319 -1.50531,1.12334 0.024,-1.87811 -1.53353,-1.0845 1.79361,-0.55754 0.55753,-1.7936 1.08451,1.53353 1.87811,-0.024 -1.12335,1.50531 z" />
              <rect style="fill:#43A9C7;fill-opacity:1;fill-rule:evenodd;stroke-width:1.56937" id="ico_main1"
                width="30.560461" height="30.624693" x="390.3775" y="231.14061" ry="4.8354778" />
              <text space="preserve"
                style="font-size:13px;line-height:1.25;font-family:sans-serif;letter-spacing:-0.68px" x="120.80743"
                y="251.30862" id="text7784">
                <tspan role="line" id="tspan7782" x="120.80743" y="251.30862" dx="0" style="font-size:13px">
                  First Class</tspan>
              </text>
              <text space="preserve"
                style="font-size:13px;line-height:1.25;font-family:sans-serif;letter-spacing:-0.68px" x="262.71048"
                y="251.04994" id="text13908">
                <tspan role="line" id="tspan13906" x="262.71048" y="251.04994" style="font-size:13px">Premium
                  Class</tspan>
              </text>
              <text space="preserve"
                style="font-size:13px;line-height:1.25;font-family:sans-serif;letter-spacing:-0.68px" x="432.87393"
                y="251.70461" id="text20662">
                <tspan role="line" id="tspan20660" x="432.87393" y="251.70461" style="font-size:13px">Main
                  Cabin</tspan>
              </text>
            </g> -->
<g id="g11560">
<rect height="39.420788" id="rect26838-7-9" ry="1.0998458" style="fill:#C8C9C7" width="18.450768" x="187.03342" y="34.95612"/>
<path d="m 200.31832,51.555476 0.0179,6.099607 c 6.4e-4,0.278686 -0.0982,0.546353 -0.27544,0.74483 l -0.4415,0.49431 c -0.085,0.09515 -0.23201,0.02894 -0.23241,-0.104667 l -0.0245,-8.363951 c -4.7e-4,-0.133615 0.14623,-0.200534 0.23178,-0.105788 l 0.44439,0.49217 c 0.17843,0.19762 0.27898,0.464804 0.27979,0.74349 z m -5.09108,-3.828625 c 0.95657,-0.0024 1.73452,0.850684 1.7376,1.905214 10e-4,0.376243 -0.0966,0.727263 -0.26621,1.023324 1.39396,0.194694 2.48353,1.513787 2.48818,3.101508 l 0.005,1.702259 c 0.005,1.723229 -1.26977,3.136229 -2.83291,3.140002 l -3.0164,0.0072 c -0.24875,6.01e-4 -0.45293,-0.223274 -0.45373,-0.497498 0.12746,-2.324113 0.12067,-4.647901 -0.0205,-6.971363 -6.4e-4,-0.274225 0.20206,-0.499082 0.45081,-0.499682 l 0.43924,-0.001 c -0.16235,-0.289817 -0.25652,-0.63099 -0.25759,-0.99641 -0.003,-1.054531 0.76986,-1.911267 1.72643,-1.913576 z m 0.002,0.60733 c -0.6523,0.0016 -1.1794,0.585805 -1.17729,1.304915 0.001,0.400206 0.16606,0.75778 0.42446,0.996007 l 1.51912,-0.0036 c 0.25701,-0.239472 0.41979,-0.597837 0.41863,-0.998042 -0.002,-0.719108 -0.53261,-1.300787 -1.18492,-1.299213 z" id="path26651" style="stroke-width:0.00848875"/>
</g>
<g id="g11556">
<rect height="39.420788" id="rect26838-7" ry="1.0998458" style="fill:#C8C9C7" width="18.450768" x="716.25806" y="95.117546"/>
<path d="m 720.5941,119.9414 h -0.49329 v -1.97319 -1.97316 h -0.52204 -0.52205 l 0.13667,-0.55495 0.13667,-0.55495 0.52129,-1.44676 0.52129,-1.44674 -0.0915,-0.40309 -0.0915,-0.40311 -0.44692,1.54154 -0.44692,1.54153 h -0.33746 -0.33747 v -0.57267 -0.57267 l 0.40492,-1.21552 0.40493,-1.2155 0.24189,-0.30831 0.24189,-0.3083 h 0.63356 0.63355 l -0.43827,-0.32048 -0.43826,-0.32048 0.0828,-0.72775 0.0828,-0.72779 h 0.86327 0.86326 l 0.0828,0.72779 0.0828,0.72775 -0.43827,0.32048 -0.43827,0.32048 h 0.63355 0.63356 l 0.27815,0.33515 0.27816,0.33515 0.49198,1.42997 0.49199,1.43 v 0.33135 0.33135 h -0.4539 -0.4539 l -0.32819,-1.36804 -0.32819,-1.36805 -0.2045,-0.12643 -0.20449,-0.12641 v 0.16157 0.16158 l 0.39113,1.34545 0.39114,1.34547 0.34728,0.66567 0.34729,0.66568 10e-4,0.18498 0.002,0.18498 h -0.61662 -0.61661 v 1.97317 1.97319 h -0.4933 -0.49329 v -1.97319 -1.97317 h -0.24657 -0.24665 v 1.97317 1.97319 z m 7.89268,0 h -0.49329 l -0.0475,-4.13133 -0.0475,-4.13132 -0.0876,1.54153 -0.0876,1.54154 h -0.35821 -0.3582 v -2.04717 -2.04715 l 0.29598,-0.29598 0.29597,-0.29597 h 1.62787 1.62786 l 0.29597,0.29597 0.29599,0.29598 v 2.04715 2.04717 h -0.35821 -0.3582 l -0.0876,-1.54154 -0.0876,-1.54153 -0.0475,4.13132 -0.0475,4.13133 h -0.49329 -0.49329 v -2.46646 -2.46647 h -0.24666 -0.24664 v 2.46647 2.46646 z m -2.95975,-0.73996 h -0.24665 v -5.30288 -5.30289 h 0.24665 0.24664 v 5.30289 5.30288 z m 3.75966,-9.41845 -0.8033,0.0774 -0.14113,-0.36779 -0.14113,-0.36777 0.0812,-0.5729 0.0812,-0.5729 h 0.86326 0.86327 v 0.86327 0.86326 z" id="path24185-7" style="fill:#000000;stroke-width:0.246645"/>
</g>
<g id="g11552">
<rect height="39.420788" id="rect26838-7-0" ry="1.0998458" style="fill:#C8C9C7" width="18.450768" x="737.63806" y="34.620018"/>
<path d="m 750.5613,51.531811 0.0179,6.099607 c 6.4e-4,0.278686 -0.0982,0.546353 -0.27544,0.74483 l -0.4415,0.49431 c -0.085,0.09515 -0.23201,0.02894 -0.23241,-0.104667 l -0.0245,-8.363951 c -4.7e-4,-0.133615 0.14623,-0.200534 0.23178,-0.105788 l 0.44439,0.49217 c 0.17843,0.19762 0.27898,0.464804 0.27979,0.74349 z m -5.09108,-3.828625 c 0.95657,-0.0024 1.73452,0.850684 1.7376,1.905214 10e-4,0.376243 -0.0966,0.727263 -0.26621,1.023324 1.39396,0.194694 2.48353,1.513787 2.48818,3.101508 l 0.005,1.702259 c 0.005,1.723229 -1.26977,3.136229 -2.83291,3.140002 l -3.0164,0.0072 c -0.24875,6.01e-4 -0.45293,-0.223274 -0.45373,-0.497498 0.12746,-2.324113 0.12067,-4.647901 -0.0205,-6.971363 -6.4e-4,-0.274225 0.20206,-0.499082 0.45081,-0.499682 l 0.43924,-0.001 c -0.16235,-0.289817 -0.25652,-0.63099 -0.25759,-0.99641 -0.003,-1.054531 0.76986,-1.911267 1.72643,-1.913576 z m 0.002,0.60733 c -0.6523,0.0016 -1.1794,0.585805 -1.17729,1.304915 10e-4,0.400206 0.16606,0.75778 0.42446,0.996007 l 1.51912,-0.0036 c 0.25701,-0.239472 0.41979,-0.597837 0.41863,-0.998042 -0.002,-0.719108 -0.53261,-1.300787 -1.18492,-1.299213 z" id="path26651-9" style="stroke-width:0.00848875"/>
</g>
<g id="g11569">
<text id="text5372" space="preserve" style="font-size:7px;line-height:1.25;font-family:sans-serif;letter-spacing:-1px;fill:#994441;fill-opacity:1" x="214.05139" y="150.60252">
<tspan id="tspan5370" role="line" x="214.05139" y="150.60252">EXIT</tspan>
</text>
<rect height="1.8010088" id="rect6232" ry="0" style="fill:#994441;fill-opacity:1" width="18.665001" x="211.18616" y="138.07735"/>
</g>
<g id="g11574">
<text id="text5372-2" space="preserve" style="font-size:7px;line-height:1.25;font-family:sans-serif;letter-spacing:-1px;fill:#994441;fill-opacity:1" x="213.96747" y="20.698025">
<tspan id="tspan5370-9" role="line" x="213.96747" y="20.698025">EXIT</tspan>
</text>
<rect height="1.8010088" id="rect6232-5" ry="0" style="fill:#994441;fill-opacity:1" width="18.665001" x="210.87917" y="29.50514"/>
</g>
<g id="g11584">
<rect height="1.8010088" id="rect6232-6" ry="0" style="fill:#994441;fill-opacity:1" width="18.665001" x="695.16632" y="137.50427"/>
<text id="text5372-7" space="preserve" style="font-size:7px;line-height:1.25;font-family:sans-serif;letter-spacing:-1px;fill:#994441;fill-opacity:1" x="697.86578" y="150.45253">
<tspan id="tspan5370-3" role="line" x="697.86578" y="150.45253">EXIT</tspan>
</text>
</g>
<g id="g11579">
<rect height="1.8010088" id="rect6232-2" ry="0" style="fill:#994441;fill-opacity:1" width="18.665001" x="695.12543" y="29.566545"/>
<text id="text5372-20" space="preserve" style="font-size:7px;line-height:1.25;font-family:sans-serif;letter-spacing:-1px;fill:#994441;fill-opacity:1" x="697.62024" y="20.493362">
<tspan id="tspan5370-6" role="line" x="697.62024" y="20.493362">EXIT</tspan>
</text>
</g>
</g>
</g>
</g>
</svg>